<svg width="20" height="20" viewBox="0 0 20 20" fill="none" xmlns="http://www.w3.org/2000/svg">
<path d="M15.8333 1.67578H5C3.995 1.67578 2.5 2.34161 2.5 4.17578V15.8424C2.5 17.6766 3.995 18.3424 5 18.3424H17.5V16.6758H5.01C4.625 16.6658 4.16667 16.5133 4.16667 15.8424C4.16667 15.7583 4.17417 15.6833 4.18667 15.6149C4.28 15.1358 4.6725 15.0174 5.00917 15.0091H16.6667C16.6817 15.0091 16.6925 15.0016 16.7075 15.0008H17.5V3.34245C17.5 2.42328 16.7525 1.67578 15.8333 1.67578ZM15.8333 13.3424H4.16667V4.17578C4.16667 3.50411 4.625 3.35245 5 3.34245H10.8333V9.17578L12.5 8.34245L14.1667 9.17578V3.34245H15.8333V13.3424Z" fill="inherit"/>
</svg>
