<svg width="18" height="18" viewBox="0 0 18 18" fill="none" xmlns="http://www.w3.org/2000/svg">
<g clipPath="url(#clip0_607_65651)">
<path d="M8.74781 13.9142L4.78031 7.04227C3.99656 5.68477 4.29283 3.90292 5.56883 2.99301C5.90891 2.74858 6.29649 2.5782 6.70652 2.49288C7.11655 2.40755 7.53992 2.40918 7.94929 2.49765C8.35865 2.58613 8.74491 2.75948 9.08311 3.00652C9.4213 3.25356 9.70392 3.56879 9.91272 3.93185L14.5477 11.9599C15.039 12.8108 14.8747 13.9362 14.079 14.5081C13.8663 14.6626 13.6234 14.7705 13.3662 14.825C13.109 14.8794 12.8432 14.8792 12.5861 14.8243C12.329 14.7694 12.0863 14.661 11.8738 14.5062C11.6613 14.3514 11.4837 14.1537 11.3526 13.9258L7.41512 7.10589C7.20887 6.74865 7.3324 6.28762 7.68964 6.08137C8.04688 5.87512 8.50791 5.99865 8.71416 6.35589L11.9954 12.0392C12.1492 12.3055 12.4975 12.3988 12.7638 12.2451C13.0301 12.0913 13.1234 11.743 12.9697 11.4767L9.74094 5.88432C9.24969 5.03345 8.19289 4.61302 7.29977 5.01609C7.05965 5.12315 6.84473 5.2795 6.66896 5.47501C6.4932 5.67052 6.36051 5.9008 6.27951 6.15091C6.19851 6.40103 6.17102 6.66538 6.19881 6.92681C6.22661 7.18823 6.30907 7.4409 6.44084 7.66839L10.3146 14.3779C11.0983 15.7354 12.7896 16.3698 14.2156 15.7197C14.5969 15.5469 14.9379 15.2962 15.2164 14.9837C15.495 14.6712 15.7051 14.3038 15.8331 13.9053C15.9611 13.5067 16.0042 13.0857 15.9597 12.6694C15.9151 12.2532 15.7839 11.8508 15.5745 11.4883L10.9732 3.51874C9.89699 1.65462 7.56925 0.772857 5.61038 1.66999C3.36096 2.70888 2.53479 5.4029 3.74229 7.49435L7.77354 14.4767C7.92729 14.743 8.27562 14.8363 8.54192 14.6826C8.80823 14.5288 8.90156 14.1805 8.74781 13.9142Z" fill="#909190"/>
</g>
<defs>
<clipPath id="clip0_607_65651">
<rect width="18" height="18" fill="white"/>
</clipPath>
</defs>
</svg>
