<svg width="174" height="48" viewBox="0 0 174 48" fill="none" xmlns="http://www.w3.org/2000/svg">
<g clip-path="url(#clip0_1476_26323)">
<path d="M51.6763 18.21V40.5526H48.0425V18.21H51.6763ZM50.3664 18.21H60.127V21.5678H50.3664V18.21ZM50.3664 27.1642H59.789V30.436H50.3664V27.1642Z" fill="#F97F00"/>
<path d="M62.9999 29.1876C63.676 28.0683 64.6056 27.1212 65.7464 26.4754C68.2394 25.184 71.1548 25.184 73.6478 26.4754C76.0563 27.81 77.4929 30.3929 77.4084 33.1481C77.4506 34.5257 77.0703 35.9033 76.3943 37.1086C75.7182 38.2279 74.7887 39.175 73.6478 39.8207C71.1548 41.1122 68.2394 41.1122 65.7464 39.8207C64.6056 39.175 63.6337 38.271 62.9999 37.1086C61.6478 34.6979 61.6478 31.6844 62.9999 29.1876ZM65.9999 35.6019C67.1408 37.6683 69.676 38.4432 71.7464 37.3239C72.4647 36.9364 73.014 36.3337 73.4365 35.6019C73.8168 34.8701 74.0281 34.0091 73.9858 33.1911C73.9858 32.3302 73.8168 31.5122 73.4365 30.7804C73.0985 30.0916 72.5492 29.5319 71.9154 29.1445C71.2394 28.7571 70.521 28.5849 69.7605 28.5849C68.9999 28.5849 68.2394 28.7571 67.6056 29.1445C66.9718 29.5319 66.4225 30.0916 66.0844 30.7804C65.7041 31.5122 65.4929 32.3732 65.5351 33.1911C65.4506 34.0091 65.6196 34.8701 65.9999 35.6019Z" fill="#F97F00"/>
<path d="M92.1549 25.873L87.0423 32.9762L92.493 40.5529H88.7324L85.2676 35.5161L81.8873 40.5529H78L83.493 32.9762L78.2958 25.873H82.1408L85.2254 30.4793L88.3521 25.873H92.1549Z" fill="#F97F00"/>
<path d="M97.7326 27.1638H101.24C101.873 27.1638 102.465 27.0777 103.057 26.8194C103.564 26.6041 103.986 26.2597 104.282 25.8292C104.578 25.3557 104.747 24.7961 104.704 24.2364C104.747 23.4185 104.366 22.6005 103.733 22.0839C103.014 21.5674 102.127 21.266 101.24 21.3091H98.5777V37.4526H101.62C102.381 37.4526 103.141 37.3234 103.817 37.0221C104.451 36.7638 104.958 36.3333 105.338 35.7736C105.719 35.1709 105.93 34.4391 105.888 33.7073C105.888 33.1476 105.803 32.631 105.55 32.1144C105.338 31.684 105.042 31.2535 104.662 30.9521C104.282 30.6508 103.817 30.3925 103.31 30.2633C102.761 30.1342 102.169 30.0481 101.578 30.0481H97.6481V27.9817H101.789C102.803 27.9817 103.817 28.1109 104.789 28.3261C105.676 28.5414 106.521 28.8857 107.282 29.4023C108 29.8759 108.592 30.5216 109.014 31.2965C109.437 32.1575 109.648 33.1046 109.648 34.0517C109.69 35.3431 109.352 36.6346 108.634 37.6678C107.958 38.6579 106.986 39.3898 105.845 39.7772C104.535 40.2508 103.183 40.5091 101.789 40.466H94.8594V18.2095H101.409C102.634 18.1665 103.859 18.3817 105.042 18.8122C106.014 19.1566 106.902 19.8023 107.493 20.6633C108.127 21.6104 108.423 22.6866 108.38 23.8059C108.423 24.8391 108.085 25.8292 107.493 26.6472C106.859 27.4651 106.014 28.0678 105.042 28.4122C103.859 28.8427 102.634 29.0579 101.409 29.0149H97.6481V27.1638H97.7326Z" fill="#404040"/>
<path d="M113.239 29.1873C113.915 28.068 114.845 27.1209 115.986 26.4752C117.211 25.8294 118.563 25.485 119.958 25.485C121.31 25.442 122.704 25.7864 123.887 26.4752C126.296 27.8097 127.732 30.3927 127.69 33.1478C127.732 34.5254 127.352 35.903 126.676 37.1084C126 38.2276 125.07 39.1747 123.929 39.8205C122.704 40.4662 121.352 40.8106 120 40.8106C118.606 40.8537 117.253 40.5093 116.028 39.8205C114.887 39.1747 113.915 38.2707 113.282 37.1084C111.93 34.6976 111.93 31.6841 113.239 29.1873ZM116.239 35.6016C116.577 36.2904 117.127 36.8501 117.761 37.2375C119.746 38.4429 122.366 37.7971 123.549 35.7738C123.591 35.7308 123.591 35.6877 123.634 35.6016C124.014 34.8698 124.225 34.0088 124.183 33.1909C124.183 32.3299 124.014 31.5119 123.634 30.7801C123.296 30.0913 122.746 29.5317 122.113 29.1442C120.76 28.3693 119.113 28.3693 117.761 29.1442C117.127 29.5317 116.577 30.0913 116.239 30.7801C115.859 31.5119 115.648 32.3729 115.69 33.1909C115.648 34.0088 115.859 34.8698 116.239 35.6016Z" fill="#404040"/>
<path d="M130.774 29.1876C131.451 28.0683 132.38 27.1212 133.521 26.4754C136.014 25.184 138.929 25.184 141.422 26.4754C143.831 27.81 145.267 30.3929 145.225 33.1481C145.267 34.5257 144.887 35.9033 144.211 37.1086C143.535 38.2279 142.605 39.175 141.465 39.8207C138.972 41.1122 136.056 41.1122 133.563 39.8207C132.422 39.175 131.451 38.271 130.817 37.1086C129.422 34.6979 129.422 31.6844 130.774 29.1876ZM133.774 35.6019C134.915 37.7113 137.535 38.4432 139.605 37.2378C139.605 37.2378 139.648 37.2378 139.648 37.1947C140.282 36.8073 140.831 36.2476 141.169 35.5589C141.549 34.827 141.76 33.966 141.718 33.1481C141.718 32.2871 141.549 31.4692 141.169 30.7373C140.831 30.0485 140.282 29.4889 139.648 29.1015C138.296 28.3266 136.648 28.3266 135.296 29.1015C134.662 29.4889 134.113 30.0485 133.774 30.7373C133.394 31.4692 133.183 32.3302 133.225 33.1481C133.183 34.0091 133.394 34.8701 133.774 35.6019Z" fill="#404040"/>
<path d="M151.521 15.627V40.5095H148.226V15.627H151.521ZM160.902 25.8727L154.733 31.9426L161.535 40.5525H157.437L150.592 31.9426L156.803 25.8727H160.902Z" fill="#404040"/>
<path d="M165.803 37.0221C166.225 37.3665 166.69 37.6678 167.239 37.8831C167.704 38.0553 168.169 38.1414 168.676 38.1414C169.183 38.1844 169.69 38.0122 170.113 37.7109C170.451 37.4526 170.662 37.0221 170.62 36.5916C170.62 36.2042 170.451 35.7737 170.197 35.4723C169.901 35.1279 169.521 34.8696 169.099 34.6974C168.634 34.4822 168.042 34.2239 167.408 34.0087C166.732 33.7504 166.099 33.449 165.507 33.1046C164.873 32.7602 164.366 32.2867 163.944 31.727C163.521 31.0813 163.31 30.3495 163.352 29.5746C163.31 28.7566 163.563 27.9817 164.028 27.336C164.493 26.7333 165.127 26.2598 165.845 26.0015C167.366 25.4418 169.014 25.4418 170.535 25.9154C171.211 26.1306 171.845 26.432 172.437 26.8625C172.986 27.2069 173.451 27.6374 173.873 28.1539L172.014 30.2203C171.549 29.6607 170.958 29.1871 170.324 28.7997C169.69 28.4553 168.972 28.24 168.254 28.24C167.831 28.24 167.408 28.3261 167.07 28.5414C166.775 28.7566 166.606 29.058 166.606 29.4454C166.606 29.7898 166.775 30.1342 167.028 30.3495C167.366 30.6508 167.746 30.9091 168.127 31.0813C168.592 31.2965 169.099 31.5118 169.69 31.7701C170.451 32.0714 171.169 32.4158 171.887 32.8033C172.521 33.1477 173.07 33.6212 173.493 34.2239C173.915 34.8696 174.127 35.6015 174.084 36.3764C174.127 37.6248 173.62 38.8732 172.69 39.7342C171.761 40.5952 170.535 40.9826 168.93 40.9826C167.155 41.0257 165.465 40.423 164.07 39.3037C163.479 38.8302 162.972 38.3136 162.549 37.7109L164.535 35.7306C164.873 36.2042 165.338 36.6347 165.803 37.0221Z" fill="#404040"/>
<path d="M35.3662 40.5098C35.493 41.2847 35.7887 43.351 35.7887 44.169V48.0434H38.4507V40.5098H35.3662Z" fill="#F97F00"/>
<path d="M34.0985 44.169C34.0985 43.2649 33.7605 40.5959 33.7605 40.5959V40.5098H3.16895V48.0434H33.8028C33.8028 47.6129 34.0985 45.073 34.0985 44.169Z" fill="#F97F00"/>
<path d="M38.324 30.1776C38.1973 29.5319 37.986 28.9292 37.6902 28.3696C35.8733 25.3992 33.1691 23.2036 30.4226 21.0512C29.6198 20.4485 28.6902 19.9749 28.0142 19.2431C27.3381 18.5113 26.9578 17.6072 26.3663 16.5741C28.1409 16.1866 29.7888 15.8422 31.4367 15.3687C32.5776 15.0243 33.6761 14.5507 34.6902 13.9911C35.155 13.6467 35.4931 13.2162 35.7043 12.6566C36.0423 11.9678 35.8733 11.4512 35.0283 11.1068C33.7607 10.6332 32.5776 10.0306 31.3522 9.47091C31.0564 9.34176 30.6339 8.99737 30.6339 8.78212C30.7607 7.74894 29.9578 7.53369 29.2395 7.1893C28.7325 6.931 28.2254 6.62966 27.8029 6.28526C26.9578 5.63952 26.3663 4.86463 26.4508 3.7023C26.4931 2.84131 26.4508 1.98033 26.324 1.11934C26.155 -0.0860401 26.0705 -0.344336 25.0564 0.344453C22.7325 1.85118 22.5212 3.6162 20.5776 5.38122C18.0001 7.74894 13.1409 10.1167 11.6621 13.4314C11.5776 13.6467 11.4508 13.905 11.3663 14.1202C10.5212 15.7561 10.2677 18.9418 10.7325 20.3193C11.6621 23.2036 14.9156 24.2799 15.8874 27.2072C16.0142 27.1642 15.9297 26.992 16.0142 26.9489C15.7607 24.9256 15.4649 22.9454 15.2959 20.922C15.1269 19.8458 15.1269 18.7696 15.2959 17.7364C15.5071 16.7462 15.3804 15.9714 16.6902 14.6799C16.7747 14.5938 27.2114 13.0871 32.7888 13.4745C32.3663 13.6467 31.9438 13.8189 31.479 13.948C29.5776 14.4216 27.6761 14.8521 25.7747 15.3687C20.8733 16.7032 19.5212 18.296 18.9719 23.1175C18.8029 24.7104 18.5916 26.2601 18.3381 27.853C18.3381 27.896 18.3381 27.9391 18.3381 27.9821C20.4085 28.1543 22.2254 28.8862 24.0423 29.5749C30.3381 32.0288 34.986 37.2377 35.155 38.6153C35.6621 38.314 36.0846 37.8835 36.4226 37.3669C37.817 35.3866 38.6621 31.7274 38.324 30.1776Z" fill="url(#paint0_linear_1476_26323)"/>
<path d="M23.3662 30.3072C21 29.274 18.5916 28.2409 15.5915 28.8435C10.3521 29.8337 8.61972 32.8471 2.74648 37.109C2.23944 37.4965 0 38.9171 0 39.2615C0.0422535 40.2516 17.1127 39.5628 28.4366 39.5628C29.7887 39.5628 30.0423 39.5198 31.1408 39.5628C33.0845 39.6489 33.3803 39.7781 33.4648 39.5628C33.9296 38.6157 29.493 32.9332 23.3662 30.3072ZM11.3662 38.0131H3.21127L5.70423 37.0229C7.05634 36.3341 8.40845 35.6023 9.67606 34.7413L12 33.4498L11.0282 35.4301L12.3803 34.9996L11.662 36.3772L13.3521 36.248L12.3803 37.2382L14.1127 38.0131H11.3662Z" fill="url(#paint1_linear_1476_26323)"/>
</g>
<defs>
<linearGradient id="paint0_linear_1476_26323" x1="10.491" y1="19.3354" x2="38.3993" y2="19.3354" gradientUnits="userSpaceOnUse">
<stop stop-color="#EB4C00"/>
<stop offset="1" stop-color="#FBB931"/>
</linearGradient>
<linearGradient id="paint1_linear_1476_26323" x1="-2.38535e-05" y1="34.2372" x2="33.5028" y2="34.2372" gradientUnits="userSpaceOnUse">
<stop stop-color="#EB4C00"/>
<stop offset="0.844" stop-color="#FAB32E"/>
<stop offset="1" stop-color="#FBB931"/>
</linearGradient>
<clipPath id="clip0_1476_26323">
<rect width="174" height="48" fill="white"/>
</clipPath>
</defs>
</svg>
