<svg width="271" height="338" viewBox="0 0 271 338" fill="none" xmlns="http://www.w3.org/2000/svg">
<path d="M249.189 285.254C250.083 290.71 252.167 305.261 252.167 311.021V338.303H270.923V285.254H249.189Z" fill="#F97F00"/>
<path d="M240.258 311.021C240.258 304.655 237.876 285.86 237.876 285.86V285.254H22.3287V338.303H238.174C238.174 335.272 240.258 317.386 240.258 311.021Z" fill="#F97F00"/>
<path d="M270.03 212.5C269.137 207.953 267.648 203.709 265.564 199.769C252.762 178.852 233.708 163.392 214.357 148.235C208.7 143.991 202.15 140.657 197.387 135.503C192.623 130.35 189.944 123.984 185.776 116.709C198.28 113.98 209.891 111.555 221.502 108.221C229.54 105.796 237.281 102.461 244.426 98.5202C247.701 96.0951 250.083 93.0637 251.571 89.1229C253.953 84.2726 252.762 80.635 246.808 78.2099C237.876 74.8753 229.54 70.6314 220.906 66.6906C218.822 65.7812 215.845 63.356 215.845 61.8403C216.738 54.565 211.082 53.0493 206.021 50.6242C202.448 48.8054 198.875 46.6834 195.898 44.2583C189.944 39.7112 185.776 34.2547 186.371 26.0699C186.669 20.0072 186.371 13.9444 185.478 7.88159C184.287 -0.606303 183.692 -2.42514 176.547 2.42509C160.172 13.035 158.684 25.4637 144.989 37.8924C126.828 54.565 92.5903 71.2377 82.1702 94.5794C81.5748 96.0951 80.6816 97.9139 80.0862 99.4296C74.1319 110.949 72.3456 133.381 75.6204 143.082C82.1702 163.392 105.094 170.97 111.942 191.584C112.835 191.281 112.24 190.068 112.835 189.765C111.049 175.517 108.965 161.573 107.774 147.326C106.583 139.747 106.583 132.169 107.774 124.893C109.263 117.921 108.369 112.465 117.599 103.37C118.194 102.764 191.73 92.1543 231.029 94.8825C228.052 96.0951 225.075 97.3076 221.8 98.217C208.402 101.552 195.005 104.583 181.608 108.221C147.073 117.618 137.546 128.834 133.675 162.786C132.484 174.002 130.996 184.915 129.21 196.131C129.21 196.434 129.21 196.737 129.21 197.04C143.798 198.253 156.6 203.406 169.401 208.257C213.761 225.535 246.51 262.215 247.701 271.916C251.274 269.794 254.251 266.762 256.633 263.125C266.457 249.18 272.412 223.413 270.03 212.5Z" fill="url(#paint0_linear_7501_92209)"/>
<path d="M164.638 213.41C147.966 206.135 130.996 198.859 109.858 203.103C72.9408 210.075 60.7343 231.295 19.3516 261.306C15.779 264.034 0 274.038 0 276.463C0.297717 283.435 120.576 278.585 200.364 278.585C209.891 278.585 211.677 278.282 219.418 278.585C233.113 279.191 235.197 280.1 235.792 278.585C239.067 271.916 207.807 231.901 164.638 213.41ZM80.086 267.672H22.6265L40.1918 260.7C49.7188 255.849 59.2458 250.696 68.1773 244.633L84.5517 235.539L77.7042 249.483L87.2312 246.452L82.17 256.152L94.0787 255.243L87.2312 262.215L99.4376 267.672H80.086Z" fill="url(#paint1_linear_7501_92209)"/>
<defs>
<linearGradient id="paint0_linear_7501_92209" x1="73.919" y1="136.153" x2="270.56" y2="136.153" gradientUnits="userSpaceOnUse">
<stop stop-color="#EB4C00"/>
<stop offset="1" stop-color="#FBB931"/>
</linearGradient>
<linearGradient id="paint1_linear_7501_92209" x1="-0.000168072" y1="241.084" x2="236.06" y2="241.084" gradientUnits="userSpaceOnUse">
<stop stop-color="#EB4C00"/>
<stop offset="0.844" stop-color="#FAB32E"/>
<stop offset="1" stop-color="#FBB931"/>
</linearGradient>
</defs>
</svg>
