<svg width="16" height="16" viewBox="0 0 16 16" fill="current" xmlns="http://www.w3.org/2000/svg">
    <path d="M12.5074 3.49945C13.2344 4.26636 13.7642 5.20705 14.0491 6.23677H16V9.76088H14.0491C13.7645 10.7914 13.2347 11.733 12.5074 12.5006L13.4846 14.2385L10.5154 16L9.54057 14.262C8.52973 14.524 7.47141 14.524 6.46057 14.262L5.48457 16L2.51543 14.2385L3.49257 12.5006C2.76532 11.733 2.23548 10.7914 1.95086 9.76088H0V6.23794H1.95086C2.23548 5.20738 2.76532 4.26585 3.49257 3.49828L2.51429 1.76147L5.48229 0H5.48571L6.46171 1.73563C7.47255 1.47367 8.53088 1.47367 9.54171 1.73563L10.5143 0H10.5166L13.4857 1.76147L12.5086 3.49945H12.5074ZM11.4286 7.99941C11.4286 7.06507 11.0673 6.169 10.4244 5.50832C9.78139 4.84764 8.90931 4.47648 8 4.47648C7.09069 4.47648 6.21862 4.84764 5.57563 5.50832C4.93265 6.169 4.57143 7.06507 4.57143 7.99941C4.57143 8.93375 4.93265 9.82983 5.57563 10.4905C6.21862 11.1512 7.09069 11.5223 8 11.5223C8.90931 11.5223 9.78139 11.1512 10.4244 10.4905C11.0673 9.82983 11.4286 8.93375 11.4286 7.99941Z"
          fill="current"/>
</svg>
