<svg width="20" height="20" viewBox="0 0 20 20" fill="none" xmlns="http://www.w3.org/2000/svg">
<path d="M2.5 5H4.16669H17.5002" stroke="inherit" strokeWidth="1.66669" strokeLinecap="round" strokeLinejoin="round"/>
<path d="M6.66702 4.99939V3.3327C6.66702 2.89067 6.84262 2.46674 7.15518 2.15418C7.46775 1.84161 7.89168 1.66602 8.33371 1.66602H11.6671C12.1091 1.66602 12.533 1.84161 12.8456 2.15418C13.1582 2.46674 13.3338 2.89067 13.3338 3.3327V4.99939M15.8338 4.99939V16.6662C15.8338 17.1082 15.6582 17.5322 15.3456 17.8447C15.0331 18.1573 14.6091 18.3329 14.1671 18.3329H5.83368C5.39165 18.3329 4.96772 18.1573 4.65515 17.8447C4.34259 17.5322 4.16699 17.1082 4.16699 16.6662V4.99939H15.8338Z" stroke="inherit" strokeWidth="1.66669" strokeLinecap="round" strokeLinejoin="round"/>
<path d="M8.33301 9.16602V14.1661" stroke="inherit" strokeWidth="1.66669" strokeLinecap="round" strokeLinejoin="round"/>
<path d="M11.667 9.16602V14.1661" stroke="inherit" strokeWidth="1.66669" strokeLinecap="round" strokeLinejoin="round"/>
</svg>
