<svg width="20" height="20" viewBox="0 0 20 20" fill="none" xmlns="http://www.w3.org/2000/svg">
<path d="M19.0677 14.668C18.319 13.3205 16.3902 11.7013 15.594 10.9967C15.3761 10.8038 15.3527 10.4701 15.5511 10.2567C17.0707 8.62383 18.2861 6.74758 18.7044 5.61383C18.889 5.11299 18.5069 4.58383 17.9686 4.58383H16.4048C15.8894 4.58383 15.5878 4.76883 15.444 5.06341C14.1811 7.65133 13.0977 8.77133 12.3394 9.42591C11.9148 9.79258 11.2527 9.48883 11.2527 8.93091C11.2527 7.85591 11.2527 6.46633 11.2527 5.48091C11.2527 5.00299 10.8619 4.61633 10.3798 4.61633L7.52316 4.58383C7.16358 4.58383 6.95816 4.99091 7.174 5.27633L7.64566 5.95341C7.82316 6.18799 7.919 6.47341 7.919 6.76633L7.9165 9.8155C7.9165 10.3459 7.27358 10.6051 6.89191 10.2334C5.60066 8.97591 4.48025 6.40799 4.07691 5.18008C3.96025 4.82466 3.62733 4.58466 3.24983 4.58383L1.70941 4.58008C1.1315 4.58008 0.708998 5.12799 0.866081 5.67966C2.27358 10.6201 5.1615 15.3201 10.3082 15.8297C10.8152 15.8797 11.2527 15.4713 11.2527 14.9659V13.3634C11.2527 12.9038 11.6132 12.5088 12.0765 12.4972C12.0927 12.4967 12.109 12.4967 12.1252 12.4967C13.4865 12.4967 15.0111 14.478 15.5444 15.4047C15.6977 15.6713 15.9844 15.8338 16.2944 15.8338H18.3665C18.9711 15.8338 19.359 15.1926 19.0677 14.668Z" fill="#909190"/>
</svg>
